<svg xmlns="http://www.w3.org/2000/svg" xmlns:xlink="http://www.w3.org/1999/xlink" version="1.1" x="0px" y="0px" viewBox="0 0 100 125" enable-background="new 0 0 100 100" xml:space="preserve" style="fill: #fff;"><g><path d="M50,19c-1.104,0-2,0.896-2,2v39.802L34.446,46.618c-0.763-0.799-2.029-0.827-2.828-0.064   c-0.798,0.764-0.827,2.029-0.064,2.828L50,68.684l18.446-19.302c0.763-0.799,0.734-2.064-0.064-2.828   c-0.799-0.763-2.065-0.733-2.828,0.064L52,60.802V21C52,19.896,51.104,19,50,19z"/><path d="M66,74H34c-1.104,0-2,0.896-2,2s0.896,2,2,2h32c1.104,0,2-0.896,2-2S67.104,74,66,74z"/></g></svg>